<?xml version="1.0" standalone="no"?>
<!DOCTYPE svg PUBLIC "-//W3C//DTD SVG 20010904//EN"
 "http://www.w3.org/TR/2001/REC-SVG-20010904/DTD/svg10.dtd">
<svg version="1.0" xmlns="http://www.w3.org/2000/svg"
 width="1895.000000pt" height="2001.000000pt" viewBox="0 0 1895.000000 2001.000000"
 preserveAspectRatio="xMidYMid meet">

<g transform="translate(0.000000,2001.000000) scale(0.100000,-0.100000)"
fill="#000000" stroke="none">
<path d="M9410 19985 c-19 -7 -2125 -833 -4680 -1835 -2554 -1001 -4651 -1819
-4660 -1817 -8 3 -23 8 -33 12 -16 7 -17 -280 -17 -5932 l0 -5939 4715 -2228
c2593 -1226 4716 -2232 4717 -2236 2 -4 2122 995 4713 2220 l4710 2227 3 5905
2 5906 30 12 c17 7 30 15 30 19 0 3 -98 44 -218 90 -119 46 -2254 877 -4744
1847 -2490 970 -4529 1764 -4530 1763 -2 0 -19 -6 -38 -14z m4094 -2159 c2211
-861 4022 -1568 4024 -1571 3 -3 3 -7 1 -9 -2 -2 -595 -282 -1317 -621 -935
-439 -1319 -615 -1335 -611 -41 10 -7836 3441 -7831 3446 3 3 539 215 1192
472 823 324 1196 466 1217 464 17 -1 1839 -708 4049 -1570z m-5819 -1681
c1645 -741 3420 -1541 3945 -1777 525 -236 958 -433 962 -436 6 -6 -3102
-1473 -3136 -1480 -11 -2 -5977 2814 -7631 3602 -71 34 -192 91 -267 127 -76
35 -138 67 -138 70 0 3 156 67 348 142 191 75 914 359 1607 631 1197 469 1261
493 1290 481 17 -7 1376 -619 3020 -1360z m-2940 -2638 l4150 -1963 3 -5322
c1 -3599 -1 -5322 -8 -5322 -6 0 -1661 780 -3678 1734 -2017 953 -3705 1751
-3752 1774 -47 22 -173 81 -280 132 -107 51 -222 105 -255 120 -33 16 -126 60
-207 99 l-148 70 0 5320 c0 4250 3 5321 13 5321 6 -1 1880 -884 4162 -1963z
m13575 -3377 c0 -2931 -4 -5330 -8 -5330 -5 0 -157 -70 -338 -156 -181 -86
-365 -173 -409 -193 -44 -21 -1761 -833 -3817 -1804 -2055 -972 -3739 -1767
-3742 -1767 -3 0 -6 2395 -6 5323 l0 5323 1727 816 c950 449 1729 816 1730
814 1 -1 -8 -834 -22 -1851 -13 -1017 -23 -1851 -21 -1853 2 -1 456 222 1010
497 l1006 500 -2 1820 -3 1821 1445 684 c795 377 1446 685 1448 685 1 1 2
-2397 2 -5329z"/>
</g>
</svg>
